<?xml version="1.0" encoding="utf-8"?>
<!-- Designed by Vexels.com - 2016 All Rights Reserved - https://vexels.com/terms-and-conditions/  -->

<svg version="1.1" id="Layer_1" xmlns="http://www.w3.org/2000/svg" xmlns:xlink="http://www.w3.org/1999/xlink" x="0px" y="0px"
	 width="1200px" height="1200px" viewBox="0 0 1200 1200" enable-background="new 0 0 1200 1200" xml:space="preserve">
<g>
	<g>
		<path fill="#231F20" d="M768.454,579.247c-2.772-8.362-4.999-16.934-7.348-25.02c-3.621-12.445-7.546-24.232-12.85-35.591
			c-3.391,5.643-6.896,11.327-10.562,17.104c-49.209,65.533-110.782,134.581-183.812,206.29
			c-11.296,11.09-22.853,22.234-34.696,33.449c-21.246,20.117-43.333,40.415-66.3,60.897
			C251.405,656.905,135.558,514.151,108.481,411.967c-3.794-14.43-6.314-29.738-7.471-45.237
			c-0.024-0.309-1.737-31.462,5.834-59.668c17.146-54.862,54.666-89.294,114.644-105.223c16.363-4.312,32.783-6.502,48.81-6.502
			c26.695,0,52.258,6.084,75.996,18.073c32.085,21.034,60.229,54.614,83.669,99.83l24.889,67.126c0,0,15.001-50.838,22.092-66.989
			c28.457-64.798,70.647-98.079,107.521-107.856l21.927-5.859c17.821-4.63,40.633-5.068,67.021-1.268
			c71.702,14.797,114.231,50.374,130.018,108.753l0.125,1.128l0.84,1.771c0.762,2.334,5.811,19.387,4.142,55.223
			c-0.787,7.515-2.068,15.302-3.823,23.339c11.873,10.809,22.289,23.104,30.983,36.663c2.534,3.972,5.194,8.046,7.773,12.205
			c8.273-23.978,13.562-46.618,15.701-67.745l0.103-1.324c2.183-44.935-4.446-68.343-7.106-75.739
			c-21.309-77.124-78.263-125.649-169.292-144.22l-1.404-0.24c-33.557-4.91-63.04-4.175-88.017,2.302l-22.057,5.892
			c-42.791,11.354-81.449,43.254-117.465,97.132c-23.502-35.858-50.683-63.854-81.12-83.499l-2.16-1.254
			c-31.312-16.096-65.071-24.265-100.352-24.265c-20.398,0-41.179,2.761-61.812,8.197
			c-77.376,20.547-127.949,67.562-150.324,139.732l-0.248,0.856c-10.017,36.83-7.729,75.049-7.609,76.927
			c1.404,18.862,4.437,37.257,9.035,54.711c30.883,116.568,154.123,268.488,376.751,464.454l16.779,14.771l16.793-14.762
			c23.463-20.635,46.072-41.108,67.854-61.415c11.632-10.84,22.97-21.618,34.111-32.356
			C649.444,720.65,715.388,648.198,768.454,579.247z"/>
		<path fill="#231F20" d="M1062.831,538.6l-1.02-0.649c-24.672-14.708-47.977-23.684-69.621-26.688l-19.17-2.541
			c-37.156-4.971-77.736,7.479-123.367,37.976c-4.812-25.314-12.41-48.083-22.625-68.219c-4.174-8.233-8.747-16.071-13.813-23.39
			l-1.286-1.681c-6.38-7.523-13.303-14.392-20.644-20.714c-14.843-12.783-31.552-23.127-50.021-30.765
			c-15.959-6.609-33.12-11.183-51.024-13.604c-67.194-8.979-121.999,11.437-162.877,60.669l-0.472,0.584
			c-19.765,25.585-30.346,56.226-30.863,57.734c-5.008,15.222-8.587,30.593-10.646,45.74c-6.335,47.236,0.66,107.112,21.103,180.367
			c12.254-10.449,23.611-21.851,36.065-32.063c-14.595-57.861-19.479-105.5-14.509-142.547c1.697-12.515,4.685-25.309,8.8-37.81
			c0.088-0.249,8.826-25.18,23.884-44.802c31.186-37.386,71.695-52.174,123.782-45.215c14.204,1.918,27.759,5.527,40.299,10.716
			c18.295,7.571,34.403,18.508,47.991,32.576c1.922,2.002,3.799,4.055,5.626,6.172c9.486,13.929,17.017,30.194,22.618,48.59
			c5.194,17.06,8.75,35.94,10.528,56.614l-2.259,60.586c0,0,28.196-34.919,38.977-45.257
			c43.249-41.489,87.042-53.877,119.063-49.588l19.052,2.519c15.443,2.145,33.44,9.191,52.858,20.706
			c51.314,34.795,73.079,76.41,66.523,127.2l-0.264,0.926l0.075,1.66c-0.16,2.07-1.733,17.054-14.635,44.552
			c-19.045,35.132-56.263,72.288-110.643,110.462c-85.531,50.619-193.186,98.691-320.214,143.031
			c-30.003-62.001-54.906-118.759-74.86-170.379c-3.213,3.062-6.477,6.023-9.52,8.893c-8.078,7.622-16.246,15.134-24.41,22.675
			c21.188,53.157,47.264,111.312,78.482,174.859l8.351,16.99l17.917-6.117c138.018-47.114,254.729-98.696,346.909-153.349
			l1.368-0.882c60.556-42.407,102.537-84.897,124.793-126.291l0.509-1.009c16.258-34.454,18.65-54.914,18.967-61.564
			C1156.906,639.017,1128.052,582.607,1062.831,538.6z"/>
	</g>
</g>
</svg>
